<svg width="146" height="48" viewBox="0 0 146 48" fill="none" xmlns="http://www.w3.org/2000/svg">
<path d="M49.3316 34.9045C49.3832 34.9048 49.4349 34.8956 49.4859 34.8818C49.5112 34.8776 49.5371 34.8746 49.5624 34.8705C49.9226 34.8103 50.0405 34.5229 49.9882 34.2466C49.9871 34.1606 49.9684 34.0704 49.9252 33.9787C48.8789 31.7574 46.9186 30.0092 45.4845 28.0523C43.5989 25.4796 42.0037 22.7049 40.4889 19.9024C37.291 13.985 34.0374 8.04705 31.3797 1.86261C31.3067 1.69299 31.1577 1.6016 30.9917 1.57454C30.8882 1.54159 30.7803 1.53344 30.6789 1.55251C26.273 1.32376 21.8246 0.788543 17.418 1.24536C17.3024 1.07887 17.174 0.918098 17.0263 0.766691C15.5412 -0.754833 13.1904 0.482955 11.3774 0.340047C10.3772 0.261135 9.49148 -0.0619701 8.58425 0.553542C8.34717 0.714314 8.09517 1.00221 8.00811 1.27988C7.95608 1.44603 7.92226 1.60975 7.89208 1.7811C7.88237 1.83625 7.85583 1.92297 7.83398 2.00361C4.56044 2.75388 1.67261 4.4863 0.132186 7.70226C0.0914291 7.78742 0.0716577 7.87101 0.0678422 7.95148C-0.000316851 8.07115 -0.0242506 8.22048 0.0293401 8.39443C0.912633 11.2649 1.80963 14.1352 3.06684 16.8685C4.45916 19.8958 5.53357 23.0741 6.80622 26.1527C8.02563 29.1025 9.54698 31.9013 10.79 34.8386C11.3918 36.2607 12.0604 37.6466 12.6951 39.0533C13.3214 40.4411 13.8769 41.8593 14.5581 43.2218C14.5732 43.2631 14.5935 43.3049 14.6197 43.347C14.6421 43.3911 14.6672 43.4299 14.6946 43.4637C16.0368 45.5799 17.7689 47.427 20.4089 47.6846C21.5934 47.8002 22.7615 47.6497 23.9254 47.4303C25.509 47.132 27.0906 46.8262 28.6771 46.5434C34.6902 45.4714 40.7466 44.6987 46.7648 43.675C46.7651 43.675 46.7654 43.6748 46.7658 43.6746C47.8161 43.5308 48.9934 43.3071 49.5865 42.3411C49.898 41.8343 49.7218 41.0445 49.372 40.6031C49.134 40.3033 48.8239 40.1387 48.4829 40.0422C48.3147 39.3856 48.1505 38.7361 48.1167 38.0526C48.0631 36.9746 48.4137 35.935 48.8711 34.9723C49.0248 34.9511 49.1782 34.9286 49.3316 34.9045ZM10.8019 4.16597C10.7978 4.11203 10.792 4.05827 10.7896 4.0045C10.7589 3.32586 10.8182 2.65034 10.6197 2.07038C10.604 1.98159 10.569 1.8999 10.5175 1.8307C10.4022 1.60298 10.2339 1.39382 9.98888 1.20998C10.7832 1.19784 11.5411 1.35706 12.3543 1.3385C13.3108 1.31682 14.205 0.898847 15.1717 0.92226C16.934 0.964924 17.0542 3.11636 17.2264 4.41485C17.4585 6.16357 17.9271 8.26592 19.0851 9.71356C19.0891 9.71946 19.0929 9.72535 19.097 9.73108C19.1066 9.7446 19.1175 9.75484 19.1277 9.7668C19.5416 10.271 20.041 10.6929 20.6472 10.9872C19.394 10.9605 18.0438 10.5752 17.2103 9.68755C17.1888 9.65251 17.1626 9.62424 17.1327 9.60135C16.8251 9.24772 16.5942 8.82142 16.4812 8.30876C16.4492 8.16446 16.2188 8.16238 16.1884 8.30876C15.9617 9.40398 16.3663 10.3896 16.6593 11.4229C15.221 10.6983 13.9565 9.96192 12.888 8.69863C12.0302 7.68457 11.2726 6.41869 10.9504 5.09054C10.8902 4.78582 10.8422 4.47728 10.8019 4.16597ZM9.01593 1.63923C9.05842 1.60576 9.10837 1.57697 9.16976 1.5546C9.25179 1.52494 9.32984 1.57627 9.40095 1.65154C9.40771 1.67322 9.41395 1.69525 9.4195 1.7178C9.27555 1.73705 9.13195 1.75734 8.98887 1.77971C8.99633 1.72855 9.00552 1.68207 9.01593 1.63923ZM9.79811 2.88638C10.0047 5.07875 10.287 7.06975 11.7671 8.79229C13.2841 10.5577 15.3388 12.5072 17.7578 12.7422C18.1444 12.7798 18.2594 12.3733 18.1092 12.1031C18.1038 12.0119 18.067 11.9188 17.9831 11.8355C17.8223 11.676 17.7044 11.4848 17.6109 11.2791C18.0486 11.5112 18.527 11.676 18.9194 11.78C20.0039 12.0679 21.4953 12.112 22.4424 11.4257C22.5248 11.366 22.5768 11.2918 22.6051 11.2125C22.6054 11.2118 22.6058 11.2112 22.6061 11.2105C22.6066 11.2089 22.6073 11.2073 22.6078 11.2058C22.6963 11.0068 22.6555 10.7566 22.4282 10.6608C22.3633 10.6156 22.2872 10.592 22.2051 10.5991C19.8993 10.0573 19.0277 7.99727 18.6151 5.833C18.4026 4.71905 18.3469 3.49739 17.9855 2.40927C22.1309 2.05755 26.3099 2.52981 30.4527 2.75423C30.5153 2.8987 30.5786 3.04299 30.6419 3.18712C29.0026 3.20047 27.3634 3.17758 25.7315 3.36645C25.5395 3.38865 25.5373 3.69233 25.7315 3.66995C27.4071 3.47606 29.0908 3.50519 30.7739 3.48924C30.8396 3.63804 30.9066 3.7865 30.973 3.93496C29.3452 4.06156 27.7033 3.86229 26.0768 4.04006C25.8845 4.06104 25.8824 4.3649 26.0768 4.34357C27.7475 4.16094 29.4319 4.36386 31.1031 4.2239C31.144 4.3146 31.1848 4.40565 31.2259 4.49636C29.6176 4.68679 28.0056 4.84409 26.3982 5.0425C26.2067 5.06609 26.2043 5.36994 26.3982 5.34601C28.0491 5.14222 29.7047 4.98214 31.3563 4.7846C31.4432 4.97451 31.5318 5.16373 31.6199 5.35329C29.9727 5.76502 28.2477 5.67605 26.5675 5.86856C26.3755 5.89058 26.3732 6.19427 26.5675 6.17207C28.2916 5.97453 30.0613 6.06818 31.7498 5.6339C31.8407 5.82867 31.9324 6.02309 32.0242 6.21733C30.328 6.3873 28.6398 6.63634 26.9371 6.73468C26.7425 6.74595 26.7414 7.04946 26.9371 7.03819C28.686 6.93708 30.4192 6.67693 32.1619 6.50696C32.2342 6.65924 32.3058 6.81169 32.3789 6.96379C32.3778 6.96379 32.3771 6.96327 32.3761 6.96344C30.6126 7.05397 28.8559 7.16393 27.1299 7.55814C26.939 7.60167 27.02 7.89425 27.2106 7.85089C28.9106 7.46258 30.6399 7.35609 32.3761 7.26695C32.4314 7.26417 32.4692 7.23659 32.4933 7.20017C32.6014 7.4239 32.7099 7.64728 32.8192 7.87049C31.0075 7.9605 29.2075 8.1766 27.4076 8.40276C27.2161 8.42686 27.2137 8.73072 27.4076 8.70626C29.2553 8.47404 31.1034 8.25291 32.964 8.16758C33.0865 8.41663 33.2101 8.66499 33.334 8.91352C31.5051 9.07689 29.6633 9.01844 27.8374 9.22882C27.6454 9.25084 27.6431 9.5547 27.8374 9.53232C29.7113 9.3164 31.6015 9.38334 33.4776 9.20332C33.5627 9.37381 33.6491 9.54377 33.7349 9.71408C32.7046 9.96885 31.6336 10.0082 30.5797 10.1147C29.836 10.19 28.9886 10.4898 28.2475 10.416C28.0528 10.3965 28.0547 10.7002 28.2475 10.7195C29.0736 10.8018 30.0382 10.473 30.8573 10.3903C31.8691 10.2881 32.8884 10.2431 33.8749 9.99123C33.9954 10.2293 34.1165 10.4673 34.2379 10.7051C32.4314 11.3898 30.3159 11.1536 28.4326 11.3704C28.2406 11.3924 28.2383 11.6962 28.4326 11.6739C30.3679 11.4512 32.5214 11.6824 34.3761 10.9746C34.5525 11.3183 34.7296 11.6616 34.9075 12.0044C33.0448 12.5407 31.0113 12.0922 29.1312 12.5865C28.9419 12.6362 29.0222 12.929 29.2118 12.8792C31.1125 12.3796 33.1676 12.8438 35.0497 12.2783C35.3614 12.8766 35.6751 13.4738 35.9906 14.07C33.9781 14.2965 31.8712 14.082 29.9709 14.9035C29.7918 14.9811 29.9463 15.2424 30.1241 15.1656C31.9709 14.3671 34.0513 14.5943 36.0072 14.3718C36.0567 14.3662 36.0931 14.3416 36.1174 14.309C36.2403 14.5411 36.3635 14.7733 36.487 15.0052C34.4609 15.624 32.2862 15.241 30.2649 15.8989C30.0797 15.9592 30.1589 16.2523 30.3455 16.1916C32.3874 15.527 34.5874 15.9268 36.6328 15.2788C36.7759 15.5471 36.919 15.8154 37.0626 16.0836C35.0322 16.3037 32.9165 16.2289 30.9878 16.9813C30.8076 17.0515 30.8858 17.3451 31.0684 17.274C33.0213 16.5121 35.1642 16.6092 37.2162 16.3708C37.3295 16.5822 37.4427 16.7938 37.5562 17.0052C35.5249 17.2988 33.4432 18.1361 31.374 17.8555C31.1827 17.8297 31.1001 18.1221 31.2933 18.1483C33.4522 18.441 35.5919 17.5796 37.7074 17.2872C37.8146 17.4868 37.9218 17.6866 38.029 17.8862C35.9188 18.4159 33.7401 18.538 31.5936 18.8611C31.4005 18.8901 31.4827 19.1826 31.6742 19.1538C33.8442 18.8273 36.0452 18.7064 38.1771 18.162C38.3255 18.4383 38.474 18.7147 38.6223 18.9908C36.5131 19.4894 34.3211 19.4645 32.2089 19.957C32.0183 20.0014 32.0991 20.294 32.2895 20.2498C34.4243 19.752 36.6401 19.7827 38.7704 19.2671C38.9067 19.5212 39.043 19.7753 39.1792 20.0295C38.9329 20.0919 38.6759 20.1258 38.4724 20.1634C37.7622 20.2949 37.039 20.3599 36.3212 20.4317C35.1604 20.5481 33.7559 20.5382 32.7034 21.0789C32.5292 21.1684 32.6827 21.4301 32.8565 21.341C34.0641 20.7206 35.7481 20.8002 37.0874 20.6559C37.6805 20.5921 38.6285 20.5843 39.3455 20.3382C39.4939 20.6148 39.6434 20.8911 39.794 21.1665C37.6824 21.9185 35.3564 21.5632 33.2054 22.1782C33.0176 22.2319 33.0976 22.5249 33.2861 22.4709C35.4595 21.8495 37.8099 22.2189 39.9409 21.4343C40.0963 21.717 40.2525 21.9992 40.4104 22.2803C39.6131 22.7942 38.1743 22.5583 37.3239 22.5873C36.1051 22.6289 34.7414 22.7061 33.5833 23.1088C33.3997 23.1726 33.4786 23.4659 33.664 23.4016C35.023 22.9288 36.6512 22.883 38.0881 22.88C38.8191 22.8785 39.8718 22.9636 40.56 22.5441C40.6703 22.739 40.7813 22.9333 40.893 23.1274C38.6762 23.6213 36.3286 23.2861 34.2058 24.2146C34.0268 24.2928 34.1813 24.5544 34.3589 24.4768C36.4713 23.5528 38.8422 23.9134 41.0507 23.4026C41.1693 23.6069 41.2903 23.8098 41.4107 24.0131C40.491 24.4161 39.4109 24.3587 38.4268 24.4494C37.1521 24.5669 35.9328 25.0143 34.6437 24.9959C34.4479 24.9932 34.4481 25.2967 34.6437 25.2994C36.0095 25.3187 37.3158 24.8551 38.6691 24.7306C39.6412 24.6411 40.6651 24.6775 41.5656 24.276C41.7029 24.5058 41.8429 24.7342 41.9825 24.9623C39.8186 25.6761 37.4944 25.9363 35.2303 26.0305C35.0353 26.0386 35.0345 26.3421 35.2303 26.334C37.5465 26.2377 39.9348 25.9701 42.1449 25.2278C42.2893 25.4614 42.4362 25.6935 42.5836 25.9252C42.3403 25.9866 41.9837 26.0662 41.8639 26.0965C41.2068 26.2627 40.5455 26.4136 39.884 26.562C38.649 26.839 37.3715 27.1895 36.1058 27.2892C35.912 27.3045 35.9105 27.6082 36.1058 27.5927C37.4611 27.4859 38.8245 27.1104 40.1469 26.8137C40.8741 26.6506 41.6004 26.481 42.3214 26.2925C42.4243 26.2656 42.5968 26.2405 42.7553 26.1949C42.9451 26.4897 43.1379 26.7826 43.3327 27.0742C43.0354 27.2181 42.6235 27.2479 42.344 27.2927C41.7094 27.3938 41.0638 27.4354 40.4237 27.4868C39.1165 27.5917 37.8477 28.155 36.5314 28.0832C36.3357 28.0724 36.3368 28.376 36.5314 28.3867C37.9584 28.4644 39.3665 27.8761 40.7877 27.761C41.4773 27.7049 42.794 27.7592 43.5089 27.339C43.6466 27.5426 43.7874 27.744 43.9281 27.9455C41.7453 28.7648 39.3313 28.6068 37.0856 29.1871C36.8963 29.236 36.9766 29.5288 37.1663 29.4799C39.4438 28.8912 41.8974 29.0621 44.1057 28.2008C44.156 28.2719 44.2044 28.3444 44.255 28.4153C44.3776 28.5874 44.5051 28.7559 44.6303 28.9261C43.5838 29.2003 42.4784 29.2227 41.4074 29.3491C40.1081 29.5027 38.8661 29.9483 37.5437 29.9112C37.3479 29.9058 37.3484 30.2093 37.5437 30.2147C38.9438 30.2541 40.2778 29.7861 41.6566 29.6233C42.7139 29.4982 43.7959 29.4757 44.8237 29.1887C44.9891 29.41 45.1582 29.6288 45.328 29.8468C43.0144 30.145 40.7081 30.493 38.4025 30.8463C38.2095 30.876 38.2917 31.1682 38.4832 31.1391C40.8334 30.779 43.1839 30.4225 45.5424 30.1222C45.7157 30.3409 45.892 30.5572 46.0693 30.7724C45.2706 31.2329 44.0226 31.0701 43.1659 31.1082C41.7774 31.1698 40.3819 31.5045 39.0049 31.6831C38.8136 31.7081 38.8111 32.0118 39.0049 31.9866C40.5807 31.7822 42.157 31.431 43.7481 31.3925C44.5377 31.3734 45.5434 31.4301 46.2628 31.0066C46.4234 31.1986 46.5856 31.389 46.7493 31.5784C44.6652 32.1481 42.4621 32.1549 40.3288 32.4381C37.7426 32.7813 35.1118 32.7938 32.5095 32.9317C28.1563 33.1625 23.5831 33.3165 19.6427 35.3861C17.9474 33.5262 17.5455 30.9408 16.5719 28.6942C15.307 25.7759 14.0469 22.8608 12.8273 19.922C11.6705 17.1342 10.3456 14.4536 9.03431 11.7389C7.80831 9.20089 6.79738 6.55015 5.93819 3.86506C7.13401 3.35413 8.44394 3.04195 9.79811 2.88638ZM47.8867 35.8022C46.8568 36.0861 45.7637 36.0972 44.7038 36.1827C43.6091 36.2708 42.5153 36.3674 41.422 36.4737C39.2038 36.6891 36.9915 36.9662 34.7937 37.3379C32.6139 37.7068 30.4352 38.1116 28.26 38.5089C27.1438 38.7127 26.0507 38.9498 24.9218 39.0816C23.9457 39.1955 22.9877 39.34 22.0744 39.7193C21.8962 39.7932 21.9743 40.087 22.155 40.0121C23.1373 39.6043 24.1641 39.4737 25.2137 39.3511C26.1592 39.2406 27.0796 39.0448 28.0132 38.8633C30.2916 38.4198 32.5878 38.0292 34.8746 37.6308C37.1521 37.2339 39.4514 36.9688 41.7517 36.7455C43.7132 36.5549 45.8579 36.635 47.779 36.1442C47.7256 36.3296 47.6805 36.5174 47.6416 36.707C45.6636 37.2559 43.5105 37.0955 41.4848 37.362C40.312 37.5164 39.1445 37.6947 37.965 37.7895C36.9093 37.8743 35.8466 37.903 34.8088 38.1281C33.6748 38.3742 32.5792 38.7417 31.4352 38.9578C30.1979 39.1916 28.9463 39.3468 27.6981 39.5081C25.3829 39.8069 23.0669 40.1173 20.8335 40.8204C20.6474 40.8791 20.727 41.172 20.9141 41.1132C23.224 40.386 25.6207 40.0797 28.0146 39.7708C30.2498 39.4822 32.4094 39.0844 34.5849 38.4964C35.782 38.1728 37.0484 38.1667 38.278 38.0677C39.4605 37.9727 40.6351 37.7772 41.8106 37.6227C43.7172 37.3719 45.7105 37.5219 47.5814 37.0382C47.5469 37.2642 47.5247 37.4933 47.5147 37.7261C47.4859 37.712 47.4515 37.7077 47.4106 37.7233C45.3371 38.5199 42.8665 38.1704 40.6847 38.366C39.708 38.4534 38.7588 38.6857 37.7955 38.8572C36.6288 39.065 35.4507 39.206 34.2799 39.3863C31.8537 39.7602 29.4605 40.2856 27.0196 40.5759C25.914 40.7074 24.8165 40.8902 23.7154 41.0546C22.5862 41.2233 21.505 41.7832 20.3534 41.7547C20.1576 41.7499 20.1581 42.0534 20.3534 42.0582C21.2459 42.0803 22.0685 41.7533 22.9159 41.514C24.1138 41.1758 25.4511 41.0768 26.6837 40.9169C29.046 40.6099 31.3782 40.2016 33.7231 39.784C34.8898 39.5764 36.0678 39.4354 37.2386 39.2549C38.4983 39.0608 39.7282 38.7552 41.0004 38.6413C43.1225 38.451 45.4664 38.7937 47.4913 38.016C47.4985 38.0133 47.5027 38.0082 47.5091 38.0048C47.5121 38.2392 47.5324 38.4718 47.5657 38.7032C45.5663 38.934 43.5833 39.1737 41.5966 39.51C39.3578 39.8893 37.0888 40.0488 34.8435 40.3976C30.3969 41.0884 25.9253 41.7304 21.5242 42.6762C21.3328 42.7173 21.4141 43.0099 21.6049 42.9689C25.9001 42.0459 30.2628 41.4183 34.6019 40.7407C36.7409 40.4068 38.8975 40.2377 41.0347 39.9077C43.2288 39.5691 45.4104 39.259 47.6147 39.0017C47.6727 39.3119 47.7469 39.6198 47.8255 39.9259L47.8173 39.9248C46.9717 39.8397 46.08 40.0289 45.2436 40.1321C44.1086 40.2722 42.9792 40.4465 41.8491 40.621C39.3748 41.0032 36.9051 41.4141 34.4365 41.8309C32.2209 42.2046 29.9942 42.5428 27.7864 42.9616C26.6868 43.1699 25.607 43.4764 24.5099 43.6979C23.3545 43.9313 22.0983 44.1446 20.9242 43.9277C19.7873 43.7175 19.4165 42.9479 19.4821 41.8765C20.0407 39.4729 22.581 38.3792 24.7367 37.7744C27.3896 37.0301 30.1959 36.8365 32.9203 36.508C35.9486 36.1431 38.9775 35.782 42.0162 35.5144C44.0608 35.3342 46.1283 35.293 48.1704 35.0604C48.0653 35.3048 47.9706 35.5521 47.8867 35.8022ZM41.0014 34.392C37.7421 34.6944 34.4939 35.1065 31.2439 35.4952C28.5051 35.823 25.7026 36.0826 23.0912 37.0254C20.95 37.7985 18.8032 39.2588 18.2954 41.6186C18.2869 41.6583 18.284 41.6961 18.2823 41.7334C18.2798 41.7493 18.275 41.7634 18.2738 41.78C17.819 47.205 25.3682 44.6517 28.2198 44.111C32.6236 43.2759 37.069 42.5933 41.4967 41.8968C43.4475 41.5898 45.4364 41.1925 47.4146 41.1286C47.8215 41.1156 49.1248 41.4011 48.2877 41.9954C47.8225 42.3257 47.1562 42.4089 46.6036 42.4823C46.5813 42.4854 46.5618 42.4923 46.5408 42.497C46.5084 42.4979 46.4763 42.4982 46.4423 42.5039C41.0812 43.416 35.6862 44.1065 30.3244 45.0276C28.8967 45.2728 27.4707 45.5288 26.0458 45.7896C24.6843 46.039 23.3246 46.3793 21.9432 46.4941C20.7436 46.5937 19.5749 46.4188 18.511 45.8422C17.2401 45.153 16.4125 43.9256 15.6679 42.7341C15.0013 41.4195 14.4501 40.0516 13.8594 38.7021C13.2451 37.2985 12.5614 35.9293 11.962 34.5182C10.7145 31.5815 9.20514 28.7762 7.97689 25.8298C6.775 22.9465 5.70804 20.0089 4.49003 17.1321C3.2453 14.193 2.18181 11.2464 1.23955 8.19741C2.23315 6.196 3.79699 4.84253 5.65914 3.98733C6.46404 6.49031 7.41133 8.94786 8.51037 11.3365C9.89003 14.3343 11.3911 17.247 12.6582 20.3006C13.8719 23.2253 15.1799 26.1139 16.3882 29.0385C17.3077 31.2636 17.7568 33.7652 19.4217 35.5937C19.428 35.6683 19.4892 35.7383 19.5693 35.7416C19.6482 35.7826 19.7368 35.7349 19.7705 35.6606C23.9245 33.469 28.7871 33.4419 33.3674 33.1878C35.895 33.0475 38.4119 32.9735 40.9268 32.6639C42.9444 32.4155 45.0074 32.3923 46.9706 31.8318C47.0717 31.9468 47.1704 32.064 47.2727 32.1779C47.3373 32.2499 47.4009 32.325 47.4645 32.4006C45.14 33.1225 42.682 33.2491 40.273 33.478C40.08 33.4962 40.0781 33.7999 40.273 33.7815C42.7496 33.5462 45.2838 33.4199 47.669 32.6558C47.6695 32.6556 47.6699 32.6551 47.6706 32.6549C47.9561 33.0191 48.2251 33.4133 48.4628 33.8158C45.9978 34.1507 43.4735 34.1625 41.0014 34.392Z" fill="#2F353A" fill-opacity="0.5"/>
<path d="M29.6744 14.1791C31.4321 13.3208 33.4979 13.8759 35.317 13.2197C35.4998 13.1538 35.4209 12.8605 35.2364 12.9269C33.3898 13.5931 31.3133 13.0419 29.5212 13.917C29.3454 14.0031 29.4992 14.2646 29.6744 14.1791Z" fill="#2F353A" fill-opacity="0.5"/>
<path d="M63.352 21.128C62.1787 21.128 61.2613 20.8027 60.6 20.152C59.9387 19.4907 59.608 18.5733 59.608 17.4H61.784C61.784 17.9547 61.9227 18.392 62.2 18.712C62.488 19.0213 62.8827 19.176 63.384 19.176H65.16C65.6293 19.176 66.008 19.08 66.296 18.888C66.5947 18.6853 66.744 18.4187 66.744 18.088V17.544C66.744 17.0213 66.36 16.696 65.592 16.568L62.648 16.072C61.688 15.912 60.9573 15.608 60.456 15.16C59.9653 14.7013 59.72 14.12 59.72 13.416V12.52C59.72 11.9547 59.8693 11.4587 60.168 11.032C60.4773 10.5947 60.9093 10.2587 61.464 10.024C62.0293 9.78933 62.68 9.672 63.416 9.672H65.224C65.9173 9.672 66.5307 9.816 67.064 10.104C67.5973 10.392 68.008 10.7973 68.296 11.32C68.5947 11.832 68.744 12.4293 68.744 13.112H66.568C66.568 12.664 66.4453 12.3067 66.2 12.04C65.9547 11.7627 65.6293 11.624 65.224 11.624H63.416C62.968 11.624 62.6053 11.72 62.328 11.912C62.0613 12.104 61.928 12.36 61.928 12.68V13.112C61.928 13.6453 62.296 13.976 63.032 14.104L65.96 14.616C66.9307 14.7867 67.672 15.0907 68.184 15.528C68.696 15.9547 68.952 16.5093 68.952 17.192V18.248C68.952 18.8133 68.792 19.3147 68.472 19.752C68.1627 20.1893 67.7253 20.5307 67.16 20.776C66.5947 21.0107 65.9387 21.128 65.192 21.128H63.352ZM75.074 11.72H71.522V9.8H80.834V11.72H77.282V21H75.074V11.72ZM88.0091 21.128C87.2198 21.128 86.5265 20.9627 85.9291 20.632C85.3318 20.2907 84.8678 19.816 84.5371 19.208C84.2065 18.6 84.0411 17.896 84.0411 17.096V9.8H86.2491V17.032C86.2491 17.672 86.4091 18.1893 86.7291 18.584C87.0598 18.9787 87.4865 19.176 88.0091 19.176H89.7051C90.2385 19.176 90.6705 18.9787 91.0011 18.584C91.3318 18.1893 91.4971 17.672 91.4971 17.032V9.8H93.7051V17.096C93.7051 17.896 93.5398 18.6 93.2091 19.208C92.8785 19.816 92.4091 20.2907 91.8011 20.632C91.1931 20.9627 90.4945 21.128 89.7051 21.128H88.0091ZM99.2527 21C98.7941 21 98.4207 20.8613 98.1327 20.584C97.8447 20.3067 97.7007 19.944 97.7007 19.496V9.8H103.045C103.898 9.8 104.645 9.96 105.285 10.28C105.935 10.6 106.437 11.0533 106.789 11.64C107.151 12.2267 107.333 12.904 107.333 13.672V16.808C107.333 18.184 106.975 19.2293 106.261 19.944C105.546 20.648 104.495 21 103.109 21H99.2527ZM103.045 19.048C103.727 19.048 104.245 18.8507 104.597 18.456C104.949 18.0613 105.125 17.48 105.125 16.712V13.768C105.125 13.16 104.927 12.6747 104.533 12.312C104.138 11.9387 103.621 11.752 102.981 11.752H99.9087V19.048H103.045ZM113.651 16.648L109.507 9.8H111.907L114.755 14.616L117.603 9.8H120.003L115.859 16.648V21H113.651V16.648ZM61.544 37C61.0747 37 60.696 36.8667 60.408 36.6C60.1307 36.3227 59.992 35.96 59.992 35.512V25.8H62.2V35.08H68.28V37H61.544ZM73.0303 37C72.5716 37 72.1982 36.8613 71.9102 36.584C71.6222 36.3067 71.4782 35.944 71.4782 35.496V25.8H80.0223V27.72H73.6862V30.312H79.5423V32.232H73.6862V35.08H80.0223V37H73.0303ZM86.9651 37.128C85.7918 37.128 84.8745 36.8027 84.2131 36.152C83.5518 35.4907 83.2211 34.5733 83.2211 33.4H85.3971C85.3971 33.9547 85.5358 34.392 85.8131 34.712C86.1011 35.0213 86.4958 35.176 86.9971 35.176H88.7731C89.2425 35.176 89.6211 35.08 89.9091 34.888C90.2078 34.6853 90.3571 34.4187 90.3571 34.088V33.544C90.3571 33.0213 89.9731 32.696 89.2051 32.568L86.2611 32.072C85.3011 31.912 84.5705 31.608 84.0691 31.16C83.5785 30.7013 83.3331 30.12 83.3331 29.416V28.52C83.3331 27.9547 83.4825 27.4587 83.7811 27.032C84.0905 26.5947 84.5225 26.2587 85.0771 26.024C85.6425 25.7893 86.2931 25.672 87.0291 25.672H88.8371C89.5305 25.672 90.1438 25.816 90.6771 26.104C91.2105 26.392 91.6211 26.7973 91.9091 27.32C92.2078 27.832 92.3571 28.4293 92.3571 29.112H90.1811C90.1811 28.664 90.0585 28.3067 89.8131 28.04C89.5678 27.7627 89.2425 27.624 88.8371 27.624H87.0291C86.5811 27.624 86.2185 27.72 85.9411 27.912C85.6745 28.104 85.5411 28.36 85.5411 28.68V29.112C85.5411 29.6453 85.9091 29.976 86.6451 30.104L89.5731 30.616C90.5438 30.7867 91.2851 31.0907 91.7971 31.528C92.3091 31.9547 92.5651 32.5093 92.5651 33.192V34.248C92.5651 34.8133 92.4051 35.3147 92.0851 35.752C91.7758 36.1893 91.3385 36.5307 90.7731 36.776C90.2078 37.0107 89.5518 37.128 88.8051 37.128H86.9651ZM99.5451 37.128C98.3718 37.128 97.4545 36.8027 96.7931 36.152C96.1318 35.4907 95.8011 34.5733 95.8011 33.4H97.9771C97.9771 33.9547 98.1158 34.392 98.3931 34.712C98.6811 35.0213 99.0758 35.176 99.5771 35.176H101.353C101.822 35.176 102.201 35.08 102.489 34.888C102.788 34.6853 102.937 34.4187 102.937 34.088V33.544C102.937 33.0213 102.553 32.696 101.785 32.568L98.8411 32.072C97.8811 31.912 97.1505 31.608 96.6491 31.16C96.1585 30.7013 95.9131 30.12 95.9131 29.416V28.52C95.9131 27.9547 96.0625 27.4587 96.3611 27.032C96.6705 26.5947 97.1025 26.2587 97.6571 26.024C98.2225 25.7893 98.8731 25.672 99.6091 25.672H101.417C102.11 25.672 102.724 25.816 103.257 26.104C103.79 26.392 104.201 26.7973 104.489 27.32C104.788 27.832 104.937 28.4293 104.937 29.112H102.761C102.761 28.664 102.638 28.3067 102.393 28.04C102.148 27.7627 101.822 27.624 101.417 27.624H99.6091C99.1611 27.624 98.7985 27.72 98.5211 27.912C98.2545 28.104 98.1211 28.36 98.1211 28.68V29.112C98.1211 29.6453 98.4891 29.976 99.2251 30.104L102.153 30.616C103.124 30.7867 103.865 31.0907 104.377 31.528C104.889 31.9547 105.145 32.5093 105.145 33.192V34.248C105.145 34.8133 104.985 35.3147 104.665 35.752C104.356 36.1893 103.918 36.5307 103.353 36.776C102.788 37.0107 102.132 37.128 101.385 37.128H99.5451ZM112.717 37.128C111.874 37.128 111.128 36.952 110.477 36.6C109.837 36.2373 109.336 35.736 108.973 35.096C108.621 34.4453 108.445 33.6933 108.445 32.84V29.96C108.445 29.1067 108.621 28.36 108.973 27.72C109.336 27.0693 109.837 26.568 110.477 26.216C111.128 25.8533 111.874 25.672 112.717 25.672H114.413C115.256 25.672 115.997 25.8533 116.637 26.216C117.288 26.568 117.789 27.0693 118.141 27.72C118.504 28.36 118.685 29.1067 118.685 29.96V32.84C118.685 33.6933 118.504 34.4453 118.141 35.096C117.789 35.736 117.288 36.2373 116.637 36.6C115.997 36.952 115.256 37.128 114.413 37.128H112.717ZM114.413 35.176C115.032 35.176 115.528 34.952 115.901 34.504C116.285 34.056 116.477 33.4693 116.477 32.744V30.056C116.477 29.3307 116.285 28.744 115.901 28.296C115.528 27.848 115.032 27.624 114.413 27.624H112.717C112.098 27.624 111.597 27.848 111.213 28.296C110.84 28.744 110.653 29.3307 110.653 30.056V32.744C110.653 33.4693 110.84 34.056 111.213 34.504C111.597 34.952 112.098 35.176 112.717 35.176H114.413ZM122.423 25.8H124.391L129.767 33.416V25.8H131.927V37H129.959L124.583 29.384V37H122.423V25.8ZM139.348 37.128C138.174 37.128 137.257 36.8027 136.596 36.152C135.934 35.4907 135.604 34.5733 135.604 33.4H137.78C137.78 33.9547 137.918 34.392 138.196 34.712C138.484 35.0213 138.878 35.176 139.38 35.176H141.156C141.625 35.176 142.004 35.08 142.292 34.888C142.59 34.6853 142.74 34.4187 142.74 34.088V33.544C142.74 33.0213 142.356 32.696 141.588 32.568L138.644 32.072C137.684 31.912 136.953 31.608 136.452 31.16C135.961 30.7013 135.716 30.12 135.716 29.416V28.52C135.716 27.9547 135.865 27.4587 136.164 27.032C136.473 26.5947 136.905 26.2587 137.46 26.024C138.025 25.7893 138.676 25.672 139.412 25.672H141.22C141.913 25.672 142.526 25.816 143.06 26.104C143.593 26.392 144.004 26.7973 144.292 27.32C144.59 27.832 144.74 28.4293 144.74 29.112H142.564C142.564 28.664 142.441 28.3067 142.196 28.04C141.95 27.7627 141.625 27.624 141.22 27.624H139.412C138.964 27.624 138.601 27.72 138.324 27.912C138.057 28.104 137.924 28.36 137.924 28.68V29.112C137.924 29.6453 138.292 29.976 139.028 30.104L141.956 30.616C142.926 30.7867 143.668 31.0907 144.18 31.528C144.692 31.9547 144.948 32.5093 144.948 33.192V34.248C144.948 34.8133 144.788 35.3147 144.468 35.752C144.158 36.1893 143.721 36.5307 143.156 36.776C142.59 37.0107 141.934 37.128 141.188 37.128H139.348Z" fill="black" fill-opacity="0.68"/>
</svg>
